<svg xmlns="http://www.w3.org/2000/svg" xmlns:xlink="http://www.w3.org/1999/xlink" width="557" zoomAndPan="magnify" viewBox="0 0 417.75 173.249993" height="231" preserveAspectRatio="xMidYMid meet" version="1.0"><defs><g/><clipPath id="id1"><path d="M 0.777344 0 L 416.726562 0 L 416.726562 172.503906 L 0.777344 172.503906 Z M 0.777344 0 " clip-rule="nonzero"/></clipPath><clipPath id="id2"><path d="M 83 84 L 138.191406 84 L 138.191406 94 L 83 94 Z M 83 84 " clip-rule="nonzero"/></clipPath><clipPath id="id3"><path d="M 88 78.390625 L 123 78.390625 L 123 87 L 88 87 Z M 88 78.390625 " clip-rule="nonzero"/></clipPath><clipPath id="id4"><path d="M 76.171875 88 L 104 88 L 104 94.828125 L 76.171875 94.828125 Z M 76.171875 88 " clip-rule="nonzero"/></clipPath></defs><g clip-path="url(#id1)"><path fill="#ffffff" d="M 0.777344 0 L 416.972656 0 L 416.972656 180.078125 L 0.777344 180.078125 Z M 0.777344 0 " fill-opacity="1" fill-rule="nonzero"/><path fill="#ffffff" d="M 0.777344 0 L 416.972656 0 L 416.972656 172.605469 L 0.777344 172.605469 Z M 0.777344 0 " fill-opacity="1" fill-rule="nonzero"/></g><g clip-path="url(#id2)"><path fill="#1f355f" d="M 136.105469 86.066406 C 134.121094 85.378906 132.003906 85.433594 129.8125 86.222656 C 129.203125 86.441406 128.589844 86.671875 127.941406 86.914062 L 127.914062 86.925781 C 124.1875 88.324219 119.960938 89.914062 115.175781 89.914062 C 114.566406 89.914062 113.957031 89.886719 113.355469 89.835938 C 110.476562 89.59375 107.789062 88.359375 105.191406 87.167969 C 102.394531 85.882812 99.503906 84.554688 96.265625 84.367188 C 93.113281 84.21875 89.976562 84.378906 86.855469 84.839844 L 83.617188 85.335938 L 86.886719 85.519531 C 93.027344 85.863281 98.292969 88.539062 101.78125 90.308594 C 106.316406 92.613281 109.898438 93.691406 113.054688 93.699219 C 113.09375 93.699219 113.132812 93.703125 113.171875 93.703125 C 119.511719 93.699219 122.769531 91.792969 125.929688 89.945312 C 128.75 88.289062 131.417969 86.730469 135.957031 86.730469 L 138.03125 86.730469 Z M 136.105469 86.066406 " fill-opacity="1" fill-rule="nonzero"/></g><g clip-path="url(#id3)"><path fill="#1f355f" d="M 95.59375 81.304688 C 100.800781 81.304688 103.582031 82.574219 105.609375 83.503906 L 105.855469 83.613281 C 106.226562 83.785156 106.628906 83.996094 107.09375 84.238281 C 109.195312 85.339844 112.167969 86.894531 116.613281 86.894531 C 117.746094 86.890625 118.871094 86.796875 119.992188 86.613281 L 122.171875 86.257812 L 119.984375 85.9375 C 115.195312 85.234375 112.96875 83.726562 110.816406 82.269531 C 109.179688 81.164062 107.632812 80.113281 104.988281 79.457031 C 100.75 78.398438 96.207031 78.871094 90.6875 80.945312 L 88.066406 81.933594 L 90.847656 81.605469 C 92.425781 81.414062 94.007812 81.3125 95.59375 81.304688 Z M 105.753906 83.195312 Z M 105.753906 83.195312 " fill-opacity="1" fill-rule="nonzero"/></g><g clip-path="url(#id4)"><path fill="#1f355f" d="M 99.230469 92.632812 C 96.378906 91.207031 93.429688 89.734375 89.082031 88.898438 C 85.660156 88.242188 81.996094 88.703125 79.523438 89.203125 L 76.324219 89.851562 L 79.585938 89.878906 C 83.902344 89.917969 86.203125 90.984375 88.234375 91.929688 C 88.742188 92.167969 89.222656 92.390625 89.714844 92.585938 C 94.222656 94.398438 98.398438 94.71875 102.238281 94.800781 L 103.933594 94.835938 L 102.386719 94.148438 C 101.285156 93.660156 100.238281 93.136719 99.230469 92.632812 Z M 99.230469 92.632812 " fill-opacity="1" fill-rule="nonzero"/></g><g fill="#1f355f" fill-opacity="1"><g transform="translate(148.923505, 93.763989)"><g><path d="M 10.5 -3.671875 C 10.5 -2.398438 10.082031 -1.425781 9.25 -0.75 C 8.414062 -0.0703125 7.1875 0.265625 5.5625 0.265625 C 4.4375 0.265625 3.457031 0.078125 2.625 -0.296875 C 1.800781 -0.671875 1.128906 -1.269531 0.609375 -2.09375 L 2.59375 -3.625 C 2.882812 -3.207031 3.160156 -2.894531 3.421875 -2.6875 C 3.691406 -2.476562 4.003906 -2.316406 4.359375 -2.203125 C 4.722656 -2.085938 5.140625 -2.03125 5.609375 -2.03125 C 6.316406 -2.03125 6.863281 -2.148438 7.25 -2.390625 C 7.644531 -2.628906 7.84375 -3 7.84375 -3.5 C 7.84375 -3.78125 7.773438 -4.015625 7.640625 -4.203125 C 7.503906 -4.390625 7.296875 -4.550781 7.015625 -4.6875 C 6.742188 -4.820312 6.269531 -4.976562 5.59375 -5.15625 C 4.9375 -5.332031 4.316406 -5.507812 3.734375 -5.6875 C 3.148438 -5.875 2.644531 -6.109375 2.21875 -6.390625 C 1.789062 -6.679688 1.453125 -7.046875 1.203125 -7.484375 C 0.960938 -7.921875 0.84375 -8.46875 0.84375 -9.125 C 0.84375 -10.332031 1.25 -11.269531 2.0625 -11.9375 C 2.875 -12.613281 4.039062 -12.953125 5.5625 -12.953125 C 7.75 -12.953125 9.300781 -12.203125 10.21875 -10.703125 L 8.25 -9.15625 C 7.894531 -9.695312 7.5 -10.082031 7.0625 -10.3125 C 6.632812 -10.550781 6.117188 -10.671875 5.515625 -10.671875 C 4.921875 -10.671875 4.4375 -10.5625 4.0625 -10.34375 C 3.6875 -10.125 3.5 -9.78125 3.5 -9.3125 C 3.5 -8.90625 3.691406 -8.59375 4.078125 -8.375 C 4.472656 -8.15625 5.15625 -7.9375 6.125 -7.71875 C 6.664062 -7.582031 7.195312 -7.429688 7.71875 -7.265625 C 8.25 -7.109375 8.71875 -6.882812 9.125 -6.59375 C 9.539062 -6.300781 9.875 -5.921875 10.125 -5.453125 C 10.375 -4.992188 10.5 -4.398438 10.5 -3.671875 Z M 10.5 -3.671875 "/></g></g></g><g fill="#1f355f" fill-opacity="1"><g transform="translate(160.565211, 93.763989)"><g><path d="M 10.640625 -8.4375 C 10.640625 -6.90625 10.28125 -5.769531 9.5625 -5.03125 C 8.84375 -4.289062 7.679688 -3.921875 6.078125 -3.921875 L 3.96875 -3.921875 L 3.96875 0 L 1.375 0 L 1.375 -12.6875 L 6.140625 -12.6875 C 7.578125 -12.6875 8.6875 -12.351562 9.46875 -11.6875 C 10.25 -11.019531 10.640625 -9.9375 10.640625 -8.4375 Z M 7.984375 -8.421875 C 7.984375 -9.128906 7.785156 -9.640625 7.390625 -9.953125 C 6.992188 -10.273438 6.28125 -10.4375 5.25 -10.4375 L 3.96875 -10.4375 L 3.96875 -6.1875 L 5.015625 -6.1875 C 5.960938 -6.1875 6.617188 -6.25 6.984375 -6.375 C 7.347656 -6.507812 7.601562 -6.734375 7.75 -7.046875 C 7.90625 -7.359375 7.984375 -7.816406 7.984375 -8.421875 Z M 7.984375 -8.421875 "/></g></g></g><g fill="#1f355f" fill-opacity="1"><g transform="translate(172.298586, 93.763989)"><g><path d="M 0.25 0 L 4.453125 -12.6875 L 7.8125 -12.6875 L 12.015625 0 L 9.375 0 L 8.53125 -2.578125 L 3.640625 -2.578125 L 2.8125 0 Z M 4.375 -4.84375 L 7.796875 -4.84375 L 6.09375 -10.09375 Z M 4.375 -4.84375 "/></g></g></g><g fill="#1f355f" fill-opacity="1"><g transform="translate(184.930314, 93.763989)"><g><path d="M 0.65625 0 L 0.65625 -2.1875 L 6.484375 -10.328125 L 0.9375 -10.328125 L 0.9375 -12.6875 L 9.578125 -12.6875 L 9.578125 -10.609375 L 3.703125 -2.359375 L 9.734375 -2.359375 L 9.734375 0 Z M 0.65625 0 "/></g></g></g><g fill="#1f355f" fill-opacity="1"><g transform="translate(195.820338, 93.763989)"><g><path d="M 0.65625 0 L 0.65625 -2.1875 L 6.484375 -10.328125 L 0.9375 -10.328125 L 0.9375 -12.6875 L 9.578125 -12.6875 L 9.578125 -10.609375 L 3.703125 -2.359375 L 9.734375 -2.359375 L 9.734375 0 Z M 0.65625 0 "/></g></g></g><g fill="#1f355f" fill-opacity="1"><g transform="translate(206.710361, 93.763989)"><g><path d="M 7.0625 0 L 0.9375 0 L 0.9375 -1.984375 L 2.703125 -1.984375 L 2.703125 -10.703125 L 0.9375 -10.703125 L 0.9375 -12.6875 L 7.0625 -12.6875 L 7.0625 -10.703125 L 5.296875 -10.703125 L 5.296875 -1.984375 L 7.0625 -1.984375 Z M 7.0625 0 "/></g></g></g><g fill="#1f355f" fill-opacity="1"><g transform="translate(215.079493, 93.763989)"><g><path d="M 11.71875 -6.34375 C 11.71875 -4.132812 11.25 -2.476562 10.3125 -1.375 C 9.382812 -0.28125 8.03125 0.265625 6.25 0.265625 C 4.375 0.265625 2.992188 -0.3125 2.109375 -1.46875 C 1.222656 -2.625 0.78125 -4.25 0.78125 -6.34375 C 0.78125 -8.445312 1.222656 -10.070312 2.109375 -11.21875 C 2.992188 -12.375 4.375 -12.953125 6.25 -12.953125 C 8.144531 -12.953125 9.53125 -12.375 10.40625 -11.21875 C 11.28125 -10.070312 11.71875 -8.445312 11.71875 -6.34375 Z M 9.046875 -6.34375 C 9.046875 -7.851562 8.832031 -8.953125 8.40625 -9.640625 C 7.988281 -10.328125 7.269531 -10.671875 6.25 -10.671875 C 5.238281 -10.671875 4.519531 -10.328125 4.09375 -9.640625 C 3.664062 -8.953125 3.453125 -7.851562 3.453125 -6.34375 C 3.453125 -4.84375 3.664062 -3.75 4.09375 -3.0625 C 4.53125 -2.375 5.25 -2.03125 6.25 -2.03125 C 7.269531 -2.03125 7.988281 -2.375 8.40625 -3.0625 C 8.832031 -3.75 9.046875 -4.84375 9.046875 -6.34375 Z M 9.046875 -6.34375 "/></g></g></g><g fill="#1f355f" fill-opacity="1"><g transform="translate(227.958724, 93.763989)"><g/></g></g><g fill="#1f355f" fill-opacity="1"><g transform="translate(232.844444, 93.763989)"><g><path d="M 10.5 -3.671875 C 10.5 -2.398438 10.082031 -1.425781 9.25 -0.75 C 8.414062 -0.0703125 7.1875 0.265625 5.5625 0.265625 C 4.4375 0.265625 3.457031 0.078125 2.625 -0.296875 C 1.800781 -0.671875 1.128906 -1.269531 0.609375 -2.09375 L 2.59375 -3.625 C 2.882812 -3.207031 3.160156 -2.894531 3.421875 -2.6875 C 3.691406 -2.476562 4.003906 -2.316406 4.359375 -2.203125 C 4.722656 -2.085938 5.140625 -2.03125 5.609375 -2.03125 C 6.316406 -2.03125 6.863281 -2.148438 7.25 -2.390625 C 7.644531 -2.628906 7.84375 -3 7.84375 -3.5 C 7.84375 -3.78125 7.773438 -4.015625 7.640625 -4.203125 C 7.503906 -4.390625 7.296875 -4.550781 7.015625 -4.6875 C 6.742188 -4.820312 6.269531 -4.976562 5.59375 -5.15625 C 4.9375 -5.332031 4.316406 -5.507812 3.734375 -5.6875 C 3.148438 -5.875 2.644531 -6.109375 2.21875 -6.390625 C 1.789062 -6.679688 1.453125 -7.046875 1.203125 -7.484375 C 0.960938 -7.921875 0.84375 -8.46875 0.84375 -9.125 C 0.84375 -10.332031 1.25 -11.269531 2.0625 -11.9375 C 2.875 -12.613281 4.039062 -12.953125 5.5625 -12.953125 C 7.75 -12.953125 9.300781 -12.203125 10.21875 -10.703125 L 8.25 -9.15625 C 7.894531 -9.695312 7.5 -10.082031 7.0625 -10.3125 C 6.632812 -10.550781 6.117188 -10.671875 5.515625 -10.671875 C 4.921875 -10.671875 4.4375 -10.5625 4.0625 -10.34375 C 3.6875 -10.125 3.5 -9.78125 3.5 -9.3125 C 3.5 -8.90625 3.691406 -8.59375 4.078125 -8.375 C 4.472656 -8.15625 5.15625 -7.9375 6.125 -7.71875 C 6.664062 -7.582031 7.195312 -7.429688 7.71875 -7.265625 C 8.25 -7.109375 8.71875 -6.882812 9.125 -6.59375 C 9.539062 -6.300781 9.875 -5.921875 10.125 -5.453125 C 10.375 -4.992188 10.5 -4.398438 10.5 -3.671875 Z M 10.5 -3.671875 "/></g></g></g><g fill="#1f355f" fill-opacity="1"><g transform="translate(244.486149, 93.763989)"><g><path d="M 8.953125 0 L 8.953125 -5.390625 L 3.96875 -5.390625 L 3.96875 0 L 1.375 0 L 1.375 -12.6875 L 3.96875 -12.6875 L 3.96875 -7.765625 L 8.953125 -7.765625 L 8.953125 -12.6875 L 11.5625 -12.6875 L 11.5625 0 Z M 8.953125 0 "/></g></g></g><g fill="#1f355f" fill-opacity="1"><g transform="translate(257.77789, 93.763989)"><g><path d="M 7.0625 0 L 0.9375 0 L 0.9375 -1.984375 L 2.703125 -1.984375 L 2.703125 -10.703125 L 0.9375 -10.703125 L 0.9375 -12.6875 L 7.0625 -12.6875 L 7.0625 -10.703125 L 5.296875 -10.703125 L 5.296875 -1.984375 L 7.0625 -1.984375 Z M 7.0625 0 "/></g></g></g><g fill="#1f355f" fill-opacity="1"><g transform="translate(266.147027, 93.763989)"><g><path d="M 10.640625 -8.4375 C 10.640625 -6.90625 10.28125 -5.769531 9.5625 -5.03125 C 8.84375 -4.289062 7.679688 -3.921875 6.078125 -3.921875 L 3.96875 -3.921875 L 3.96875 0 L 1.375 0 L 1.375 -12.6875 L 6.140625 -12.6875 C 7.578125 -12.6875 8.6875 -12.351562 9.46875 -11.6875 C 10.25 -11.019531 10.640625 -9.9375 10.640625 -8.4375 Z M 7.984375 -8.421875 C 7.984375 -9.128906 7.785156 -9.640625 7.390625 -9.953125 C 6.992188 -10.273438 6.28125 -10.4375 5.25 -10.4375 L 3.96875 -10.4375 L 3.96875 -6.1875 L 5.015625 -6.1875 C 5.960938 -6.1875 6.617188 -6.25 6.984375 -6.375 C 7.347656 -6.507812 7.601562 -6.734375 7.75 -7.046875 C 7.90625 -7.359375 7.984375 -7.816406 7.984375 -8.421875 Z M 7.984375 -8.421875 "/></g></g></g><g fill="#1f355f" fill-opacity="1"><g transform="translate(277.880405, 93.763989)"><g><path d="M 10.640625 -8.4375 C 10.640625 -6.90625 10.28125 -5.769531 9.5625 -5.03125 C 8.84375 -4.289062 7.679688 -3.921875 6.078125 -3.921875 L 3.96875 -3.921875 L 3.96875 0 L 1.375 0 L 1.375 -12.6875 L 6.140625 -12.6875 C 7.578125 -12.6875 8.6875 -12.351562 9.46875 -11.6875 C 10.25 -11.019531 10.640625 -9.9375 10.640625 -8.4375 Z M 7.984375 -8.421875 C 7.984375 -9.128906 7.785156 -9.640625 7.390625 -9.953125 C 6.992188 -10.273438 6.28125 -10.4375 5.25 -10.4375 L 3.96875 -10.4375 L 3.96875 -6.1875 L 5.015625 -6.1875 C 5.960938 -6.1875 6.617188 -6.25 6.984375 -6.375 C 7.347656 -6.507812 7.601562 -6.734375 7.75 -7.046875 C 7.90625 -7.359375 7.984375 -7.816406 7.984375 -8.421875 Z M 7.984375 -8.421875 "/></g></g></g><g fill="#1f355f" fill-opacity="1"><g transform="translate(289.613784, 93.763989)"><g><path d="M 7.0625 0 L 0.9375 0 L 0.9375 -1.984375 L 2.703125 -1.984375 L 2.703125 -10.703125 L 0.9375 -10.703125 L 0.9375 -12.6875 L 7.0625 -12.6875 L 7.0625 -10.703125 L 5.296875 -10.703125 L 5.296875 -1.984375 L 7.0625 -1.984375 Z M 7.0625 0 "/></g></g></g><g fill="#1f355f" fill-opacity="1"><g transform="translate(297.982921, 93.763989)"><g><path d="M 8.53125 0 L 3.90625 -9.0625 L 3.90625 0 L 1.375 0 L 1.375 -12.6875 L 4.734375 -12.6875 L 9.03125 -4.140625 L 9.03125 -12.6875 L 11.578125 -12.6875 L 11.578125 0 Z M 8.53125 0 "/></g></g></g><g fill="#1f355f" fill-opacity="1"><g transform="translate(311.293001, 93.763989)"><g><path d="M 9.765625 -9.125 C 9.441406 -9.644531 9.046875 -10.03125 8.578125 -10.28125 C 8.117188 -10.539062 7.535156 -10.671875 6.828125 -10.671875 C 5.671875 -10.671875 4.832031 -10.296875 4.3125 -9.546875 C 3.800781 -8.804688 3.546875 -7.703125 3.546875 -6.234375 C 3.546875 -4.773438 3.800781 -3.707031 4.3125 -3.03125 C 4.820312 -2.363281 5.644531 -2.03125 6.78125 -2.03125 C 7.632812 -2.03125 8.421875 -2.207031 9.140625 -2.5625 L 9.140625 -4.53125 L 6.671875 -4.53125 L 6.671875 -6.8125 L 11.734375 -6.8125 L 11.734375 -1.203125 C 11.148438 -0.765625 10.421875 -0.410156 9.546875 -0.140625 C 8.679688 0.128906 7.785156 0.265625 6.859375 0.265625 C 4.878906 0.265625 3.382812 -0.25 2.375 -1.28125 C 1.375 -2.3125 0.875 -3.960938 0.875 -6.234375 C 0.875 -10.710938 2.847656 -12.953125 6.796875 -12.953125 C 7.941406 -12.953125 8.941406 -12.757812 9.796875 -12.375 C 10.660156 -11.988281 11.3125 -11.425781 11.75 -10.6875 Z M 9.765625 -9.125 "/></g></g></g></svg>