<svg width="117" height="101" viewBox="0 0 117 101" fill="none" xmlns="http://www.w3.org/2000/svg">
<path d="M89.3374 88.4306C77.4212 91.3087 65.2775 93.3183 53.1789 93.8202C41.2159 94.2335 28.7528 93.3651 18.6175 88.7971C16.2429 87.5639 13.9603 86.1466 12.4537 84.4566C10.9938 82.765 10.3985 81.0766 10.5373 79.4301C10.7647 75.9129 14.3717 71.6177 18.7094 68.3749C21.7679 66.0457 25.1927 63.9892 28.7528 62.2072L27.1558 55.8572L22.9084 51.7007C18.982 54.0768 15.1927 56.7707 11.5858 59.878C9.02893 62.162 6.56244 64.6736 4.51062 67.826C2.50061 70.9785 0.721341 74.8169 0.764819 79.3381C0.764819 83.8626 3.09257 88.1562 5.97047 90.8502C8.84669 93.5442 12.0423 95.1907 15.2379 96.5611C21.676 99.0275 28.2027 99.9427 34.5972 100.309C41.0353 100.629 47.3797 100.398 53.6355 99.6683C66.1471 98.2511 78.3359 95.2827 90.2053 91.5346C90.9812 91.2601 91.4846 90.4386 91.3023 89.617C91.0749 88.7502 90.2053 88.2014 89.3374 88.4306Z" fill="#0091BE"/>
<path d="M114.404 3.77671C107.647 1.63158 100.342 2.40629 94.1786 5.92518C90.6636 7.98162 87.1937 10.1284 83.6787 12.2284L71.3059 8.66599C72.5835 7.29391 73.04 6.10756 72.448 5.14878C71.8544 4.05111 70.438 3.86873 68.2474 4.50792C67.0585 4.87437 65.5518 5.60391 63.8177 6.51752L60.485 5.55872C61.7625 4.23349 62.1756 3.04715 61.6271 2.08836C60.6689 0.396692 57.975 0.808323 52.9967 3.4136L43.5922 0.716294C42.6808 0.441878 41.6306 0.580765 40.8079 1.03589L35.1926 4.28202C34.3247 4.784 34.2344 6.0172 35.0538 6.61121L61.2174 25.9826C55.8295 29.4095 50.3964 32.8347 45.0554 36.3535L39.119 40.3259C38.2511 40.9216 37.1106 40.9667 36.1525 40.5082L26.8382 35.803C25.8349 35.2994 24.6476 35.3462 23.6877 35.8951L19.3048 38.4066C18.6209 38.8199 18.4821 39.7319 19.0306 40.2807L32.0873 53.026L36.517 70.704C36.6993 71.4821 37.5672 71.8469 38.2511 71.4353L42.5888 68.9237C43.5922 68.3749 44.2309 67.3709 44.2778 66.2732L44.9617 55.812C45.0069 54.7612 45.6457 53.8476 46.6038 53.3456L52.9951 50.24C58.7492 47.4071 64.4565 44.4354 70.1153 41.5139L73.6303 73.9033C73.7223 74.909 74.8192 75.4561 75.6854 74.9541L81.3008 71.7582C82.1687 71.2545 82.8074 70.433 83.0349 69.4742L85.4529 60.0169C87.1418 58.9661 88.4228 58.0541 89.3341 57.184C91.0231 55.6312 91.5715 54.306 90.9328 53.2117C90.3843 52.2529 89.1519 52.022 87.3726 52.4805L88.2405 49.1457C89.9311 48.0948 91.2538 47.1361 92.1669 46.2676C93.8575 44.7132 94.4026 43.3896 93.7655 42.3371C93.217 41.3332 91.9846 41.1508 90.1585 41.5607L93.3558 29.0882C96.916 27.0786 100.523 25.2045 104.038 23.1498C110.202 19.6326 114.585 13.6941 116.137 6.79527C116.412 5.51354 115.682 4.18833 114.404 3.77671ZM105.638 16.3396C105.591 16.3396 105.5 16.3864 105.456 16.3864C104.541 16.3864 103.719 15.6552 103.63 14.7399C103.536 14.0104 103.264 13.1872 102.807 12.4108C102.394 11.6795 101.802 10.9935 101.209 10.5367C100.433 9.94268 100.25 8.80151 100.842 8.02511C101.483 7.20187 102.623 7.01949 103.399 7.61517C104.404 8.39157 105.272 9.39553 106.001 10.6287C106.688 11.8184 107.098 13.0951 107.28 14.33C107.372 15.3356 106.642 16.2476 105.638 16.3396Z" fill="#1F355F"/>
</svg>
