<svg width="128" height="128" viewBox="0 0 128 128" fill="none" xmlns="http://www.w3.org/2000/svg">
<path d="M111.579 16.4115C103.475 8.31226 92.6366 3.53455 81.1909 3.01618C69.7452 2.49781 58.5191 6.27621 49.7161 13.6097C40.9131 20.9432 35.169 31.3022 33.6114 42.6532C32.0537 54.0043 34.795 65.5277 41.2971 74.9614C42.2601 76.3552 43.3002 77.6941 44.4125 78.9719L40.3431 83.0413L35.4204 78.1183L5.8589 108.186C4.94235 109.102 4.21532 110.189 3.71939 111.386C3.22346 112.584 2.96834 113.867 2.96863 115.163C2.96892 116.458 3.2246 117.741 3.72106 118.938C4.21753 120.135 4.94503 121.222 5.86199 122.138C6.77894 123.054 7.86737 123.779 9.06503 124.274C10.2627 124.769 11.5461 125.022 12.8419 125.021C14.1377 125.019 15.4204 124.762 16.6168 124.264C17.8132 123.767 18.8997 123.038 19.8143 122.12L49.3639 92.0647L45.8072 88.5126L45.8069 88.5128L44.9455 87.6517L49.0213 83.5757C50.0994 84.5104 51.2087 85.3873 52.3494 86.2065C61.7207 92.925 73.2764 95.8721 84.7207 94.4625C96.1649 93.0529 106.66 87.3897 114.121 78.598C121.582 69.8063 125.462 58.5296 124.991 47.0085C124.521 35.4874 119.733 24.565 111.579 16.4115V16.4115ZM101.598 71.3737C96.393 76.5898 89.5406 79.8395 82.2083 80.5688C74.8759 81.2982 67.5176 79.4621 61.3875 75.3735C55.2574 71.2849 50.7349 65.1969 48.591 58.1472C46.4471 51.0975 46.8144 43.5224 49.6303 36.7132C52.4462 29.904 57.5364 24.2821 64.0334 20.8057C70.5303 17.3294 78.0317 16.2138 85.2591 17.6492C92.4865 19.0845 98.9924 22.9819 103.668 28.677C108.343 34.3721 110.899 41.5125 110.899 48.881C110.907 53.0581 110.089 57.1954 108.493 61.0555C106.896 64.9155 104.553 68.4221 101.598 71.3737L101.598 71.3737Z" fill="#1F355F"/>
<path d="M92.7485 45.4894C90.6007 45.4895 88.4832 44.9825 86.5683 44.0097C84.6535 43.0368 82.9954 41.6255 81.729 39.8907C80.4627 38.156 79.6238 36.1467 79.2808 34.0264C78.9377 31.9062 79.1002 29.7349 79.7549 27.6893C75.3064 27.5534 70.9279 28.8201 67.239 31.31C63.5502 33.7999 60.7378 37.3869 59.2001 41.5633C57.6623 45.7398 57.4771 50.2941 58.6705 54.5816C59.8639 58.8692 62.3756 62.6728 65.85 65.4541C69.3244 68.2354 73.5855 69.8536 78.0303 70.0795C82.4751 70.3054 86.8784 69.1277 90.6169 66.713C94.3555 64.2984 97.2399 60.7691 98.8619 56.6246C100.484 52.4802 100.761 47.9306 99.6551 43.6198C97.5601 44.8459 95.176 45.4913 92.7485 45.4894Z" fill="#0091BE"/>
</svg>
