<svg width="123" height="122" viewBox="0 0 123 122" fill="none" xmlns="http://www.w3.org/2000/svg">
<g clip-path="url(#clip0_128_102)">
<path fill-rule="evenodd" clip-rule="evenodd" d="M55.1499 0C61.0393 3.77567 67.1841 7.13712 73.5399 10.06C71.7794 12.2674 70.3075 14.6902 69.16 17.27C64.3493 14.9151 59.6753 12.2909 55.1599 9.41C41.4699 20.05 25.7199 25.34 8.52995 24.41C7.22995 73.93 25.7199 101.41 55.3399 112.19C76.5299 104.19 91.7999 88.07 98.4499 63.41H99.2099C101.739 63.412 104.259 63.12 106.72 62.54C99.1999 92.59 81.2099 111.85 55.3399 121.6C19.6399 108.59 -1.49005 76.65 0.0799478 17C18.8599 18 37.2899 13.92 55.1499 0.05V0Z" fill="white"/>
<path fill-rule="evenodd" clip-rule="evenodd" d="M40.3 53.09H41.8V49.78C41.792 46.1022 43.2033 42.5631 45.74 39.9C46.9683 38.5866 48.4533 37.5394 50.1029 36.8235C51.7526 36.1076 53.5317 35.7382 55.33 35.7382C57.1283 35.7382 58.9074 36.1076 60.557 36.8235C62.2067 37.5394 63.6917 38.5866 64.92 39.9C67.4812 42.5519 68.9149 46.0932 68.92 49.78V53.09H70.41C70.9961 53.09 71.5582 53.3228 71.9727 53.7373C72.3871 54.1518 72.62 54.7139 72.62 55.3V78.65C72.6173 79.2353 72.3837 79.7959 71.9698 80.2098C71.5559 80.6237 70.9953 80.8574 70.41 80.86H40.3C39.7146 80.8574 39.1541 80.6237 38.7402 80.2098C38.3263 79.7959 38.0926 79.2353 38.09 78.65V55.3C38.09 54.7139 38.3228 54.1518 38.7373 53.7373C39.1517 53.3228 39.7138 53.09 40.3 53.09ZM45.98 53.09H64.69V49.78C64.7063 47.1763 63.7136 44.6675 61.92 42.78C61.0778 41.876 60.0585 41.1552 58.9256 40.6623C57.7927 40.1694 56.5704 39.915 55.335 39.915C54.0995 39.915 52.8772 40.1694 51.7443 40.6623C50.6114 41.1552 49.5921 41.876 48.75 42.78C46.9564 44.6675 45.9636 47.1763 45.98 49.78V53.09ZM53.52 68L51.14 74.25H59.53L57.32 67.91C58.192 67.4594 58.8855 66.7265 59.2873 65.831C59.6891 64.9355 59.7755 63.9302 59.5323 62.9793C59.2892 62.0284 58.7309 61.1879 57.9486 60.5952C57.1662 60.0024 56.2061 59.6923 55.2248 59.7156C54.2436 59.7388 53.2992 60.094 52.5458 60.7231C51.7924 61.3523 51.2745 62.2182 51.0767 63.1796C50.8788 64.1409 51.0127 65.141 51.4565 66.0165C51.9002 66.892 52.6276 67.5912 53.52 68Z" fill="white"/>
<path fill-rule="evenodd" clip-rule="evenodd" d="M99.23 6.92001C103.907 6.92001 108.48 8.30706 112.369 10.9058C116.258 13.5045 119.29 17.1981 121.08 21.5196C122.87 25.841 123.338 30.5963 122.426 35.1839C121.513 39.7716 119.261 43.9856 115.953 47.2931C112.646 50.6006 108.431 52.853 103.844 53.7656C99.2562 54.6781 94.501 54.2098 90.1795 52.4198C85.858 50.6297 82.1644 47.5985 79.5657 43.7093C76.967 39.82 75.58 35.2475 75.58 30.57C75.58 24.2976 78.0716 18.2822 82.5069 13.8469C86.9421 9.4117 92.9576 6.92001 99.23 6.92001ZM93.79 30C94.4702 30.57 95.1085 31.1883 95.7 31.85C97.5099 28.9477 99.5145 26.1713 101.7 23.54C107.7 16.36 104.95 17.75 113.2 17.75L112 19.05C109.207 22.2177 106.669 25.6016 104.41 29.17C101.549 33.3041 98.9533 37.6161 96.64 42.08L95.93 43.46L95.27 42.06C94.1052 39.515 92.6308 37.1236 90.88 34.94C89.3007 32.9478 87.4177 31.2166 85.3 29.81C86.37 26.28 91.49 28.09 93.78 30.03L93.79 30Z" fill="#0091BE"/>
</g>
<defs>
<clipPath id="clip0_128_102">
<rect width="122.88" height="121.63" fill="white"/>
</clipPath>
</defs>
</svg>
