<svg width="118" height="125" viewBox="0 0 118 125" fill="none" xmlns="http://www.w3.org/2000/svg">
<path d="M32.1031 2.00124L31.4187 2.72624V7.24874V11.7712H41.444H51.4693V6.52374V1.27624H42.1272H32.7851L32.1031 2.00124Z" fill="#1F355F"/>
<path d="M56.4241 6.52374V11.7712H71.521H86.6179V7.24874V2.72624L85.9335 2.00124L85.2491 1.27624H70.8378H56.4241V6.52374Z" fill="#1F355F"/>
<path d="M22.3138 17.72C21.3226 18.545 21.2754 18.97 21.2754 26.2413V33.2625H28.8239H36.3723V25.2663V17.27H29.6015C23.5162 17.27 22.761 17.32 22.3138 17.72Z" fill="#1F355F"/>
<path d="M41.3743 25.1913L41.4451 33.1375L48.9464 33.2125L56.4241 33.2625V25.2663V17.27H48.8756H41.3271L41.3743 25.1913Z" fill="#1F355F"/>
<path d="M61.6137 25.2663V33.2625H66.5673H71.521V25.2663V17.27H66.5673H61.6137V25.2663Z" fill="#1F355F"/>
<path d="M76.7107 25.2663V33.2625H86.7359H96.7612V26.265C96.7612 21.3925 96.6668 19.0925 96.478 18.6438C95.9116 17.295 95.6756 17.2688 85.7919 17.2688H76.7095V25.2663H76.7107Z" fill="#1F355F"/>
<path d="M21.2754 46.8075C21.2754 55.9538 21.299 56.0538 22.715 56.8525L23.541 57.3275L29.887 55.8288L36.2567 54.355L36.3275 46.4338L36.3747 38.5125H28.8262H21.2754V46.8075Z" fill="#1F355F"/>
<path d="M41.3271 45.7575C41.3271 52.505 41.3507 53.005 41.7519 52.9788C41.9643 52.9788 45.338 52.2288 49.2296 51.305L56.3061 49.6063L56.3769 44.0588L56.4241 38.5113H48.8756H41.3271V45.7575Z" fill="#1F355F"/>
<path d="M61.6609 44.0575L61.7317 49.605L66.6381 50.78L71.521 51.93V45.2075V38.51H66.5673H61.6137L61.6609 44.0575Z" fill="#1F355F"/>
<path d="M76.7106 45.8325V53.1537L85.6515 55.2525L94.5688 57.3262L95.3712 56.8512C96.74 56.0012 96.7624 55.9012 96.7624 46.8062V38.51H86.7371H76.7118V45.8325H76.7106Z" fill="#1F355F"/>
<path d="M44.276 57.9025C36.4903 59.7262 26.2054 62.175 21.3934 63.3C11.9333 65.5487 11.5097 65.6987 11.2501 67.3725C11.1321 67.9475 12.7133 72.32 18.421 87.4887C23.7994 101.657 25.6626 106.88 25.4502 107.03C24.1286 107.93 20.4022 107.905 18.6794 106.98C18.0658 106.655 16.4386 105.156 14.7866 103.381C10.5173 98.7587 8.46414 97.5337 4.7141 97.2837C2.68568 97.1587 2.66208 97.1587 1.95408 97.9337C0.98648 98.9337 0.91568 100.557 1.78888 101.557C2.40248 102.257 2.73288 102.382 4.7613 102.607C6.69532 102.832 8.15852 103.857 11.1781 107.13C12.6402 108.705 14.481 110.454 15.2586 111.004C19.1278 113.702 24.8366 113.802 28.7047 111.204C29.3655 110.779 31.3231 108.905 33.0919 107.08C36.9139 103.081 37.6916 102.631 40.4988 102.631C43.424 102.606 44.4388 103.231 48.236 107.304C50.9961 110.277 51.5625 110.777 53.3549 111.677C56.5397 113.327 59.4885 113.576 62.9318 112.452C65.1018 111.752 67.0122 110.279 70.1734 106.88C73.7122 103.106 74.5146 102.631 77.4151 102.631C80.2931 102.631 81.0955 103.106 84.7275 106.93C89.398 111.852 91.6636 113.102 96.0508 113.077C100.274 113.052 102.609 111.727 106.926 107.03C110.016 103.631 111.243 102.806 113.555 102.556C115.937 102.331 116.811 101.506 116.811 99.5825C116.811 98.9325 116.622 98.4825 116.079 97.9325C115.371 97.1575 115.347 97.1575 113.319 97.3075C109.473 97.5325 107.681 98.6312 103.246 103.38C100.604 106.204 99.9908 106.729 98.812 107.179C96.878 107.954 93.8112 107.879 92.584 107.029C92.3716 106.879 94.2596 101.631 99.6132 87.3875C106.902 68.0962 106.949 67.9712 106.644 67.0712C106.455 66.5712 106.054 65.9725 105.723 65.7225C105.346 65.4475 97.16 63.3987 82.2047 59.9C69.587 56.9275 59.0661 54.5037 58.8537 54.5287C58.6177 54.5287 52.0604 56.0525 44.276 57.9025ZM60.4113 65.6487C61.6385 66.5737 61.6149 66.2487 61.6149 87.4887V107.23L61.0013 107.48C60.1281 107.83 57.2973 107.78 56.8264 107.405C56.4488 107.13 56.4252 105.731 56.4724 86.9137L56.5432 66.6975L57.322 65.9725C58.2165 65.1237 59.5145 64.9987 60.4113 65.6487Z" fill="#1F355F"/>
<path d="M2.73408 107.955C1.34286 108.605 0.776463 110.804 1.69568 112.029C2.26208 112.804 3.0869 113.154 4.7861 113.303C6.83812 113.503 7.90012 114.253 11.3681 117.95C15.7082 122.573 17.8322 123.723 22.1014 123.723C26.3707 123.723 28.4947 122.573 32.8347 117.95C36.8455 113.653 37.3635 113.353 40.5012 113.353C42.6476 113.353 42.9544 113.403 44.0872 114.078C44.7952 114.478 46.446 116.026 48.0496 117.751C52.3425 122.4 54.1597 123.449 58.1457 123.674C62.9105 123.924 65.0098 122.874 69.7286 117.926C73.7618 113.679 74.3282 113.354 77.4186 113.354C80.5327 113.354 81.1463 113.704 85.1559 117.951C87.8215 120.775 88.6947 121.55 90.0859 122.299C92.3504 123.474 94.0012 123.824 96.7612 123.674C100.701 123.449 102.682 122.275 107.022 117.601C108.603 115.903 110.302 114.303 110.867 114.003C111.41 113.703 112.589 113.378 113.485 113.253C114.359 113.128 115.325 112.903 115.585 112.753C116.977 111.953 117.235 109.979 116.127 108.68C115.467 107.88 115.372 107.855 113.769 107.88C111.646 107.93 109.287 108.705 107.493 109.954C106.714 110.504 104.828 112.303 103.318 113.978C99.8504 117.751 98.8368 118.35 95.8172 118.35C92.892 118.325 92.1604 117.875 88.2687 113.728C85.4379 110.704 84.8479 110.179 83.0791 109.28C79.2807 107.306 75.5778 107.281 71.803 109.255C70.0814 110.155 69.4442 110.68 66.6134 113.704C62.6981 117.851 61.9193 118.351 59.1357 118.351C56.0925 118.351 55.4553 117.976 51.3513 113.729C47.4112 109.655 46.1144 108.781 42.9768 108.081C39.8156 107.381 36.2307 108.106 33.6347 109.98C32.8795 110.555 31.0163 112.354 29.5307 113.954C25.9919 117.803 25.0491 118.351 22.1002 118.351C19.1514 118.351 18.2546 117.801 14.5754 113.854C11.4614 110.505 9.88134 109.281 7.71132 108.531C6.0369 107.93 3.44208 107.655 2.73408 107.955Z" fill="#1F355F"/>
</svg>
