<svg width="142" height="102" viewBox="0 0 142 102" fill="none" xmlns="http://www.w3.org/2000/svg">
<path d="M78.8147 70.3339C78.7645 70.3339 78.7143 70.2854 78.6642 70.2854C76.8598 69.7315 75.4568 68.3779 74.8047 66.6226C74.6057 66.1223 74.5053 65.6203 74.5053 65.1183C70.5957 70.8359 65.1325 75.3989 58.666 78.2066C61.9252 73.3424 64.4302 66.8217 65.8834 59.2987H76.7612L77.0605 58.7984C78.4133 56.6416 80.721 55.3866 83.3263 55.3866C84.0286 55.3866 84.9801 55.3866 86.134 55.4351C87.1373 51.774 87.6373 47.964 87.6373 44.0502C87.6373 43.5499 87.6373 43.0479 87.5871 42.546C85.1808 41.6943 82.9266 40.9413 80.92 40.2887C81.0705 41.4935 81.1207 42.7969 81.1207 44.0502C81.1207 47.0604 80.721 49.9686 80.0186 52.778H66.8884C67.1894 49.9686 67.3382 47.0102 67.3382 44.0502C67.3382 41.0434 67.1894 38.1336 66.8884 35.3258H70.5974C70.3967 35.0731 70.2462 34.7753 70.1459 34.4741C69.4954 32.7189 69.696 30.7126 70.7478 29.1063L70.9485 28.8051H65.885C64.4319 21.2336 61.9269 14.763 58.6677 9.84865C65.4352 12.807 71.1475 17.6728 75.0572 23.8405C76.7612 22.6374 78.8665 21.9849 81.1223 21.9849H81.6742C74.0555 8.99695 59.9721 0.218994 43.8334 0.218994C19.725 0.218994 0.078064 19.8782 0.078064 44.0502C0.078064 68.1737 19.725 87.8363 43.8334 87.8363C58.1159 87.838 70.8465 80.9658 78.8147 70.3339ZM47.0876 7.59475C52.0507 9.99924 56.8617 17.723 59.268 28.8068H47.0876V7.59475ZM47.0876 35.3275H60.3199C60.6209 38.085 60.8215 40.9948 60.8215 44.0519C60.8215 47.0621 60.6209 49.9703 60.3199 52.7797H47.0876V35.3275ZM47.0876 59.2987H59.268C56.8617 70.3339 52.0507 78.056 47.0876 80.5124V59.2987ZM28.9958 9.84865C25.7383 14.7145 23.2317 21.2336 21.7785 28.8051H9.84886C13.6582 20.33 20.526 13.5616 28.9958 9.84865ZM6.59137 44.0519C6.59137 41.045 6.99103 38.1352 7.6432 35.3275H20.7735C20.4742 38.1369 20.3237 41.045 20.3237 44.0519C20.3237 47.0119 20.4742 49.9703 20.7735 52.7797H7.6432C6.99103 49.9719 6.59137 47.0621 6.59137 44.0519ZM9.84886 59.2987H21.7785C23.2317 66.8217 25.7383 73.3424 28.9958 78.2066C20.526 74.497 13.6582 67.7253 9.84886 59.2987ZM40.5743 80.5124C35.6128 78.056 30.8001 70.3322 28.444 59.2987H40.5743V80.5124ZM40.5743 52.7797H27.342C27.041 49.9703 26.842 47.0621 26.842 44.0519C26.842 40.9932 27.041 38.0834 27.342 35.3275H40.5743V52.7797ZM40.5743 28.8051H28.444C30.8001 17.7214 35.6128 9.99757 40.5743 7.59308V28.8051Z" fill="#1F355F"/>
<path d="M86.935 73.0898C85.6323 74.845 84.2276 76.5518 82.7243 78.205C77.7127 83.8221 71.8482 88.7382 65.0824 91.8471C58.3166 95.0581 50.7481 96.5105 43.1295 96.0102C35.4606 95.5082 27.842 93.251 20.6247 90.0919L20.5745 90.0433C19.9223 89.7907 19.1715 90.0433 18.8705 90.644C18.4692 91.2983 18.72 92.15 19.3722 92.4997C26.4892 96.462 34.2583 99.6211 42.5776 100.874C50.8986 102.228 59.7179 101.428 67.788 98.4666C75.9585 95.5082 83.1257 90.4934 89.3898 84.7759C91.5453 82.7194 93.649 80.6128 95.5553 78.4058C94.1021 77.0019 92.848 75.9494 92.047 75.4474C91.0955 74.8467 89.2911 73.995 86.935 73.0898Z" fill="#0091BE"/>
<path d="M140.587 65.2054C139.284 62.4411 137.082 57.8765 134.531 52.9755C136.276 51.4126 137.879 49.736 139.214 47.8653C139.7 47.1826 139.481 46.2222 138.774 45.767L134.451 42.9927C133.746 42.5393 132.774 42.7501 132.356 43.4797C131.826 44.4033 131.394 45.3855 130.963 46.3644C129.506 43.7742 128.02 41.276 126.577 39.0639C125.659 37.66 125.682 35.8412 126.588 34.429L133.132 24.2254C134.874 21.508 135.809 18.3505 135.827 15.1211L135.846 12.0724C135.859 9.73322 133.434 8.17875 131.317 9.16264L128.555 10.451C125.629 11.8131 123.15 13.98 121.408 16.6974L114.864 26.9009C113.958 28.3132 112.316 29.0929 110.655 28.8436C108.047 28.4521 105.157 28.1408 102.197 27.8965C102.906 27.0934 103.619 26.2919 104.237 25.4251C104.726 24.7424 104.512 23.7719 103.804 23.3168L99.4833 20.5425C98.776 20.0891 97.8111 20.2882 97.3947 21.0177C96.2509 23.0106 95.3947 25.1691 94.7024 27.4063C89.1875 27.1268 84.1223 27.0248 81.0672 26.9896C79.1892 26.9695 77.4468 27.92 76.4334 29.5029L74.9535 31.8103C74.5806 32.3926 74.8515 33.164 75.5137 33.3631C79.9167 34.685 94.4817 39.1894 104.348 43.7357L96.6205 57.8012C95.5687 59.7154 93.5035 60.8566 91.3246 60.706C88.1507 60.4851 84.9986 60.4215 83.2845 60.4048C82.4618 60.3947 81.7009 60.8114 81.2561 61.5024L79.6023 64.0843C79.2712 64.6013 79.5187 65.289 80.104 65.4681C83.1374 66.3934 91.2911 68.9987 94.7275 71.2057C98.1673 73.4128 103.931 79.7444 106.038 82.1171C106.445 82.5756 107.172 82.5137 107.503 81.9966L109.157 79.4148C109.602 78.7237 109.66 77.857 109.311 77.1124C108.579 75.5629 107.206 72.7217 105.686 69.9273C104.64 68.0081 104.816 65.6538 106.117 63.8986L115.674 51.0077C123.916 58.0873 134.078 69.4605 137.115 72.9124C137.572 73.4312 138.386 73.3559 138.759 72.7752L140.237 70.4678C141.252 68.8866 141.389 66.9054 140.587 65.2054ZM126.543 15.2148C127.241 14.5874 128.011 14.0419 128.851 13.6035C129.05 13.5014 129.289 13.5081 129.483 13.6185C130 13.9147 130.533 14.2259 131.052 14.5589C131.568 14.8902 132.072 15.2416 132.55 15.5897C132.735 15.7218 132.841 15.9394 132.826 16.1703C132.762 17.0989 132.6 18.0309 132.331 18.9278C132.222 19.2876 131.792 19.4248 131.498 19.1872C130.764 18.6015 129.983 18.0443 129.155 17.5122C128.327 16.9801 127.493 16.5033 126.654 16.0766C126.321 15.9109 126.262 15.4642 126.543 15.2148Z" fill="#1F355F"/>
</svg>
