<svg width="113" height="123" viewBox="0 0 113 123" fill="none" xmlns="http://www.w3.org/2000/svg">
<g clip-path="url(#clip0_128_100)">
<path fill-rule="evenodd" clip-rule="evenodd" d="M56.73 0.289986C65.6925 6.14267 75.3548 10.8462 85.49 14.29C94.31 17.14 102.56 18.29 110.17 17.55C110.567 17.5165 110.961 17.6402 111.268 17.8946C111.575 18.1489 111.769 18.5136 111.81 18.91V19C113.17 46.42 108.92 68.42 99.92 85.39C90.4 103.33 75.6 115.64 56.56 122.8C56.2366 122.915 55.8834 122.915 55.56 122.8C37.63 116.25 23.36 104.93 13.76 87.8C4.15998 70.67 -0.700016 47.84 0.0799836 18.15C0.0904687 17.7512 0.258306 17.3728 0.546843 17.0974C0.835381 16.822 1.22118 16.6719 1.61998 16.68C11.1251 17.2816 20.6623 16.2155 29.8 13.53C38.9146 10.7166 47.4285 6.23758 54.91 0.319986C55.1714 0.120486 55.4911 0.0124207 55.82 0.0124207C56.1488 0.0124207 56.4686 0.120486 56.73 0.319986V0.289986ZM81.19 24.19C72.3309 21.1612 63.8723 17.0679 56 12C48.9943 17.4056 41.0367 21.4489 32.54 23.92C24.9748 26.0243 17.125 26.922 9.27998 26.58C9.27998 50.22 13.5 68.58 21.4 82.36C27.8724 93.7783 37.7535 102.887 49.66 108.41L43.74 91C42.87 88.94 42.22 87 41.42 85C39.9247 81.6136 37.9733 78.4476 35.62 75.59C33.7495 72.1113 32.78 68.2196 32.8 64.27C34.22 65.35 35.8 66.64 37.32 67.84C40.19 70.09 43.21 72.84 46.21 68.84C46.78 68.03 47.36 67.25 47.95 66.52C50.1828 63.7372 52.7678 61.2565 55.64 59.14C52.64 62.14 51.47 68.06 52.9 75.45C53.9 63.45 56.81 54.17 71.1 56.05L69.37 52L63.53 54.2C59 55.87 53.87 49.83 56.15 47C63.93 42.54 74.31 34.16 79.34 43.25L83.46 50.76C88.92 60.51 85.32 64.03 78.56 73.48C76.0651 77.0044 73.2279 80.2736 70.09 83.24C68.5 84.73 68.76 84.24 69.97 86.24L77.07 98.87C82.7279 94.0226 87.4844 88.2132 91.12 81.71C98.88 68 102.77 50 102.58 27.33C95.3179 27.6019 88.0676 26.5376 81.19 24.19ZM32.79 51.42C33.1821 51.0085 33.7055 50.7467 34.27 50.68C34.5702 50.6599 34.8717 50.6938 35.16 50.78C35.8224 50.9944 36.416 51.3809 36.88 51.9C40.0359 54.6656 42.9901 57.6532 45.72 60.84C47.2 62.21 47.54 63.62 46.37 64.99L44.25 67.36C43.18 68.44 41.81 68.36 40.32 67.3C33.6 61.66 25.67 58.75 32.79 51.42ZM64 26C64.3115 26.028 64.6159 26.1092 64.9 26.24C66.42 26.91 68.18 29.98 68.9 31.39C69.38 32.29 70.76 34.73 71.9 36.78L62.3 40.65C60.76 38.17 59.37 35.65 57.97 33.58C57.5815 33.1406 57.327 32.5991 57.2366 32.0196C57.1462 31.4401 57.2238 30.8468 57.46 30.31C58.1678 29.0884 59.2082 28.0931 60.46 27.44C61.34 27 63.15 26 64 26ZM52.64 32.41C52.9545 32.4184 53.2655 32.4793 53.56 32.59C54.2293 32.8695 54.81 33.3258 55.24 33.91C56.2463 35.0084 57.1407 36.2043 57.91 37.48C58.38 38.22 59.41 39.82 60.48 41.48C57.17 42.97 52.71 43.77 52.55 48.02C50.6 45.35 48.85 42.5 47.13 40.31C46.7148 39.894 46.4274 39.3678 46.3016 38.7937C46.1758 38.2196 46.2169 37.6215 46.42 37.07C47.11 35.2 50.78 32.34 52.64 32.37V32.41ZM42.4 41C42.7001 40.9853 43.0006 41.0191 43.29 41.1C43.9496 41.3092 44.5404 41.6927 45 42.21C46.049 43.1776 47.0003 44.2461 47.84 45.4C49 47 53.61 52.83 54.27 54.17C54.5201 54.617 54.6219 55.1318 54.5608 55.6404C54.4997 56.1489 54.2789 56.625 53.93 57L51.21 59.64C50.13 60.72 48.76 60.64 47.27 59.58C43.79 56.24 40.6 52 37.8 49C37.3737 48.6413 37.058 48.1689 36.8898 47.6378C36.7216 47.1067 36.7078 46.5387 36.85 46C37.31 44.28 40.66 41.11 42.4 41Z" fill="white"/>
</g>
<defs>
<clipPath id="clip0_128_100">
<rect width="112.06" height="122.88" fill="white"/>
</clipPath>
</defs>
</svg>
