<svg width="123" height="97" viewBox="0 0 123 97" fill="none" xmlns="http://www.w3.org/2000/svg">
<g clip-path="url(#clip0_126_94)">
<g filter="url(#filter0_i_126_94)">
<path d="M87.08 15.79C96.36 16.9 104.69 21.13 110.97 27.41C118.33 34.77 122.88 44.94 122.88 56.17C122.88 67.4 118.33 77.57 110.97 84.93C103.61 92.29 93.44 96.85 82.2 96.85C70.96 96.85 60.8 92.3 53.44 84.93C46.08 77.57 41.53 67.4 41.53 56.17C41.53 44.94 46.08 34.77 53.44 27.41C60.18 20.67 69.28 16.28 79.4 15.59V10.4C79.4 10.3 79.41 10.19 79.41 10.09H71.79C70.54 10.09 69.52 9.07 69.52 7.82V2.27C69.52 1.02 70.54 0 71.79 0H94.69C95.94 0 96.96 1.02 96.96 2.27V7.83C96.96 9.08 95.94 10.1 94.69 10.1H87.07C87.08 10.2 87.08 10.3 87.08 10.41V15.79ZM85.47 50.1C87.63 51.26 89.1 53.55 89.1 56.18C89.1 59.99 86.01 63.08 82.2 63.08C78.39 63.08 75.3 59.99 75.3 56.18C75.3 53.55 76.77 51.27 78.93 50.1V34.29C78.93 32.49 80.39 31.02 82.19 31.02C83.99 31.02 85.46 32.48 85.46 34.29V50.1H85.47ZM118.74 28.08C120.32 24.31 120.13 20.37 117.87 17.72C115.16 14.55 110.26 14.18 105.71 16.42C110.53 19.72 114.9 23.57 118.74 28.08ZM45.67 28.08C44.09 24.31 44.28 20.37 46.54 17.72C49.25 14.55 54.15 14.18 58.7 16.42C53.88 19.72 49.5 23.57 45.67 28.08ZM106.35 32.04C100.17 25.86 91.64 22.04 82.21 22.04C72.78 22.04 64.24 25.86 58.07 32.04C51.89 38.22 48.07 46.76 48.07 56.18C48.07 65.61 51.89 74.15 58.07 80.33C64.25 86.51 72.78 90.33 82.21 90.33C91.64 90.33 100.18 86.51 106.36 80.33C112.54 74.15 116.36 65.62 116.36 56.18C116.35 46.75 112.53 38.21 106.35 32.04Z" fill="white"/>
</g>
<path d="M3.26 40.99C1.46 40.99 0 39.53 0 37.72C0 35.92 1.46 34.45 3.26 34.45H35.48L33.85 40.98H3.26V40.99Z" fill="#0091BE"/>
<path d="M10.04 59.7C8.24002 59.7 6.77002 58.24 6.77002 56.44C6.77002 54.64 8.23002 53.17 10.04 53.17H30.86L31.4 59.7H10.04Z" fill="#0091BE"/>
<path d="M17.34 78.9C15.54 78.9 14.07 77.44 14.07 75.63C14.07 73.83 15.53 72.36 17.34 72.36H33.61L35.79 78.89H17.34V78.9Z" fill="#0091BE"/>
</g>
<defs>
<filter id="filter0_i_126_94" x="41.53" y="0" width="81.35" height="100.85" filterUnits="userSpaceOnUse" color-interpolation-filters="sRGB">
<feFlood flood-opacity="0" result="BackgroundImageFix"/>
<feBlend mode="normal" in="SourceGraphic" in2="BackgroundImageFix" result="shape"/>
<feColorMatrix in="SourceAlpha" type="matrix" values="0 0 0 0 0 0 0 0 0 0 0 0 0 0 0 0 0 0 127 0" result="hardAlpha"/>
<feOffset dy="4"/>
<feGaussianBlur stdDeviation="2"/>
<feComposite in2="hardAlpha" operator="arithmetic" k2="-1" k3="1"/>
<feColorMatrix type="matrix" values="0 0 0 0 0 0 0 0 0 0 0 0 0 0 0 0 0 0 0.25 0"/>
<feBlend mode="normal" in2="shape" result="effect1_innerShadow_126_94"/>
</filter>
<clipPath id="clip0_126_94">
<rect width="122.88" height="96.86" fill="white"/>
</clipPath>
</defs>
</svg>
