<svg width="216" height="102" viewBox="0 0 216 102" fill="none" xmlns="http://www.w3.org/2000/svg">
<path d="M212.471 0.603823L205.978 0.925093C203.316 1.06063 200.771 2.05789 198.731 3.77467L187.687 13.0663L145.357 5.59853C142.984 5.18188 140.546 5.83613 138.701 7.38892L136.593 9.16426L170.785 28.4989L156.265 42.1745L140.123 37.7721C138.771 37.4793 137.362 37.8273 136.305 38.7192L133.964 40.6853L152.464 53.4322L161.838 73.8561L164.179 71.8867C165.236 70.9982 165.823 69.6696 165.765 68.2875L164.201 51.615L180.154 39.6495L193.328 76.6722L195.436 74.9002C197.281 73.3474 198.343 71.0567 198.338 68.6456L198.247 25.6342L209.528 16.1418C211.421 14.5488 212.786 12.4221 213.443 10.036L215.127 3.9169C215.6 2.19678 214.252 0.51514 212.471 0.603823Z" fill="#1F355F"/>
<path d="M143.591 56.4642C135.663 63.0485 123.325 66.2628 111.285 65.9633C117.417 50.7014 117.942 34.6883 114.574 24.8846C109.564 10.2184 96.3288 4.82882 86.0095 6.02855C74.2688 7.44916 65.9662 16.5802 64.7706 29.2251C63.3509 45.5394 70.4545 58.6327 84.8105 66.1892C89.6717 68.8095 95.2067 70.6033 100.964 71.5754C100.74 71.9519 100.514 72.3251 100.29 72.7016C95.0562 81.1566 85.3339 91.7082 68.8826 93.9521C56.6168 95.6002 43.9799 92.2319 35.2308 88.862C33.7342 91.0322 32.3128 92.9029 31.1924 94.3235C31.1171 94.4005 31.1171 94.4005 31.0419 94.4741C38.8946 97.6199 50.2607 101.135 62.2255 101.135C64.6937 101.135 67.2371 100.985 69.7789 100.613C84.8841 98.592 97.3739 90.1387 106.048 76.2171C106.795 75.0224 107.543 73.7474 108.217 72.4757C122.949 73.5248 138.203 69.7064 147.85 61.7015C149.345 60.5068 149.495 58.4102 148.372 56.9879C147.179 55.4887 145.086 55.3381 143.591 56.4642ZM104.182 65.3676C98.3488 64.5427 92.8154 62.8209 87.9526 60.2776C79.5781 55.8635 70.0063 47.0336 71.5013 29.8241C72.5498 18.4509 80.1015 13.5097 86.8322 12.7618C87.5061 12.6112 88.18 12.6112 88.9258 12.6112C96.18 12.6112 104.779 16.878 108.22 27.0548C111.21 35.8094 110.464 51.2252 104.182 65.3676Z" fill="#0091BE"/>
<path d="M23.9918 23.0624C11.1441 23.0624 0.73114 33.4836 0.73114 46.3359C0.73114 61.74 16.5654 83.1645 22.1038 90.1906C23.0754 91.4221 24.9081 91.4221 25.8797 90.1906C31.4181 83.1645 47.2524 61.74 47.2524 46.3359C47.2524 33.4819 36.8361 23.0624 23.9918 23.0624ZM23.9918 57.9802C17.5637 57.9802 12.3531 52.7663 12.3531 46.3359C12.3531 39.9056 17.5637 34.6916 23.9918 34.6916C30.4181 34.6916 35.6288 39.9056 35.6288 46.3359C35.6288 52.7663 30.4181 57.9802 23.9918 57.9802Z" fill="#1F355F"/>
</svg>
