<svg width="329" height="80" viewBox="0 0 329 80" fill="none" xmlns="http://www.w3.org/2000/svg">
<path d="M317.995 35.9449C307.426 32.4992 296.16 32.7614 284.509 36.7264C281.274 37.8277 278.017 38.9816 274.565 40.2088L274.409 40.2613C254.581 47.2996 232.11 55.2767 206.65 55.2767C203.421 55.2767 200.164 55.1456 196.973 54.8886C181.658 53.6614 167.369 47.4674 153.549 41.478C138.674 35.0271 123.297 28.3664 106.075 27.4223C89.3093 26.6723 72.622 27.4643 56.0184 29.7982L38.8013 32.2841L56.1913 33.2019C88.8464 34.9274 116.867 48.3643 135.411 57.2592C159.539 68.8289 178.591 74.2466 195.373 74.2991C195.585 74.2991 195.797 74.2991 196.009 74.2991C229.723 74.2991 247.046 64.7171 263.851 55.4288C278.87 47.1213 293.054 39.2805 317.198 39.2805H328.224L317.995 35.9449Z" fill="#1F355F"/>
<path d="M102.186 11.9858C129.972 11.9858 144.8 18.3427 155.627 22.9811L156.931 23.54C158.917 24.3862 161.066 25.4413 163.556 26.6636C174.769 32.1639 190.62 39.9416 214.345 39.9416C220.393 39.9259 226.403 39.4558 232.373 38.5313L244 36.7605L232.345 35.1569C206.774 31.6363 194.906 24.1041 183.419 16.8175C174.679 11.2702 166.426 6.03106 152.32 2.72985C129.698 -2.56671 105.442 -0.195269 75.994 10.1889L62 15.1251L76.8501 13.4849C85.2655 12.5238 93.7089 12.0223 102.186 11.9858Z" fill="#1F355F"/>
<path d="M121.842 68.9285C106.677 61.7696 90.9936 54.3641 67.8701 50.1789C49.6603 46.8852 30.162 49.1876 17.0163 51.7051L0 54.9568L17.3621 55.0984C40.3127 55.2872 52.5381 60.6577 63.3469 65.4041C66.0519 66.5894 68.6063 67.7118 71.2221 68.703C95.2045 77.792 117.419 79.4179 137.843 79.8217L146.867 80L138.618 76.5385C132.762 74.084 127.213 71.4617 121.842 68.9285Z" fill="#1F355F"/>
</svg>
